<?xml version="1.0" standalone="no"?>
<!DOCTYPE svg PUBLIC "-//W3C//DTD SVG 20010904//EN"
 "http://www.w3.org/TR/2001/REC-SVG-20010904/DTD/svg10.dtd">
<svg version="1.0" xmlns="http://www.w3.org/2000/svg"
 width="770.000000pt" height="570.000000pt" viewBox="0 0 770.000000 570.000000"
 preserveAspectRatio="xMidYMid meet">

<g transform="translate(0.000000,570.000000) scale(0.100000,-0.100000)"
fill="#000000" stroke="none">
<path d="M2560 3100 c-73 -14 -137 -66 -167 -137 -19 -48 -17 -63 11 -63 19 0
27 8 36 35 28 84 122 140 199 117 46 -14 109 -80 118 -122 5 -25 10 -30 35
-30 26 0 29 3 22 23 -39 128 -139 198 -254 177z"/>
<path d="M3145 3105 c-5 -2 -27 -6 -48 -10 -46 -7 -110 -62 -138 -116 -26 -52
-25 -79 4 -79 17 0 26 11 41 45 32 79 111 126 184 110 45 -10 110 -70 123
-116 10 -33 16 -39 40 -39 26 0 27 1 17 40 -12 48 -75 122 -120 142 -35 16
-87 28 -103 23z"/>
<path d="M1900 2915 l0 -185 25 0 25 0 2 163 3 162 80 3 c89 2 121 -9 144 -49
17 -30 9 -71 -19 -99 -16 -16 -34 -20 -80 -20 -52 0 -60 -2 -60 -19 0 -16 10
-19 71 -23 60 -3 74 -8 90 -27 27 -33 33 -65 17 -97 -21 -45 -51 -54 -180 -54
-111 0 -118 -1 -118 -20 0 -19 7 -20 135 -20 151 0 184 9 210 60 30 58 6 149
-44 165 -24 7 -27 20 -8 32 58 34 62 137 8 185 -31 28 -33 28 -166 28 l-135 0
0 -185z"/>
<path d="M3520 2983 l0 -117 30 29 c29 28 30 32 30 117 l0 88 -30 0 -30 0 0
-117z"/>
<path d="M3808 3081 c-8 -11 -76 -85 -151 -165 l-137 -146 0 -70 0 -70 30 0
30 0 0 73 c0 73 0 73 43 115 l44 43 87 -115 c70 -95 91 -116 112 -116 31 0 34
-6 -79 143 l-89 117 29 34 c15 19 57 66 92 105 l63 71 -30 0 c-19 0 -36 -7
-44 -19z"/>
<path d="M4151 3078 c-5 -13 -48 -117 -95 -232 -47 -115 -86 -210 -86 -213 0
-2 12 -3 27 -1 25 3 32 17 115 227 48 124 88 228 88 233 0 18 -41 7 -49 -14z"/>
<path d="M4530 2865 l0 -235 25 0 25 0 2 187 3 186 50 -91 c28 -51 53 -92 57
-92 4 0 12 9 18 20 9 17 0 40 -57 140 -61 109 -70 120 -95 120 l-28 0 0 -235z"/>
<path d="M4933 3088 c-35 -46 -194 -351 -189 -363 13 -34 36 -8 110 125 43 77
82 143 87 146 5 3 9 -77 9 -180 l0 -186 25 0 25 0 0 235 0 235 -29 0 c-16 0
-33 -6 -38 -12z"/>
<path d="M5170 2865 l0 -235 25 0 25 0 0 235 0 235 -25 0 -25 0 0 -235z"/>
<path d="M5402 3079 c2 -11 80 -116 173 -234 146 -184 174 -214 198 -215 l27
0 0 235 0 235 -30 0 -30 0 -2 -186 -3 -186 -148 186 c-105 133 -153 186 -168
186 -15 0 -20 -5 -17 -21z"/>
<path d="M4226 3005 c-10 -28 -7 -49 19 -113 14 -34 25 -66 25 -72 0 -6 -26
-10 -60 -10 -33 0 -60 -2 -60 -4 0 -2 -3 -11 -6 -20 -5 -14 5 -16 69 -16 l75
0 28 -70 c25 -65 29 -70 57 -70 19 0 27 4 24 13 -49 123 -151 364 -157 370 -4
5 -10 1 -14 -8z"/>
<path d="M5400 2793 l0 -163 25 0 25 0 0 133 c-1 125 -2 134 -25 162 l-25 30
0 -162z"/>
<path d="M2380 2815 c0 -29 31 -90 63 -123 47 -49 84 -65 153 -66 51 -1 68 4
110 29 49 31 97 95 110 148 6 25 4 27 -25 27 -23 0 -31 -5 -31 -18 0 -32 -56
-108 -93 -125 -90 -43 -193 6 -227 108 -9 27 -17 35 -36 35 -15 0 -24 -6 -24
-15z"/>
<path d="M2943 2795 c8 -48 60 -117 110 -145 51 -29 146 -33 193 -7 63 33 105
87 128 165 7 19 4 22 -22 22 -25 0 -30 -5 -35 -29 -7 -35 -59 -96 -98 -117
-80 -41 -184 11 -220 111 -10 27 -19 35 -37 35 -23 0 -24 -3 -19 -35z"/>
</g>
</svg>
